<?xml version="1.0" encoding="utf-8"?>
<!-- Generator: Adobe Illustrator 28.1.0, SVG Export Plug-In . SVG Version: 6.00 Build 0)  -->
<svg version="1.1" id="Capa_1" xmlns="http://www.w3.org/2000/svg" xmlns:xlink="http://www.w3.org/1999/xlink" x="0px" y="0px"
	 viewBox="0 0 681.7 260" style="enable-background:new 0 0 681.7 260;" xml:space="preserve">
<style type="text/css">
	.st0{enable-background:new    ;}
	.st1{fill:#F2F4F7;}
	.st2{fill:url(#SVGID_1_);}
	.st3{fill:url(#SVGID_00000032629945302098925540000014847362217649487490_);}
	.st4{fill:url(#SVGID_00000169548252404368079380000006088080515920734339_);}
	.st5{fill:url(#SVGID_00000018220066096359342940000009110299046650628536_);}
	.st6{fill:url(#SVGID_00000076562855800800475000000003910699096765103007_);}
	.st7{fill:url(#SVGID_00000023997269255883432300000002931743092229552039_);}
</style>
<g class="st0">
	<path class="st1" d="M296.8,105.9v56.9h32.7v21.6h-58.7v-78.5H296.8z"/>
	<path class="st1" d="M358,123.1v61.3h-25.2v-61.3H358z M355.7,106c0,5.9-4.1,10.2-10.2,10.2s-10.2-4.3-10.2-10.2
		c0-6,4.1-10.3,10.2-10.3S355.7,99.9,355.7,106z"/>
	<path class="st1" d="M396,124.8v1.7h11.9v15.9H396v42h-25.1v-42h-8.4v-15.9h8.4V121c0-12.8,10-20.9,25.4-20.8
		c6.9,0,14.9,1.7,20,4.4l-8.4,17.2c-1.9-1.3-4.4-2.1-6.2-2.1C398.2,119.5,396,121.5,396,124.8z"/>
	<path class="st1" d="M469.9,159.4h-39.9c1.7,4.8,5.3,7.3,10.2,7.3c4.3,0,8.6-1.9,12.4-5.5l13.1,12.9c-6.5,7.2-15.9,11.2-27.8,11.2
		c-20.9,0-33.4-12.3-33.4-31.2c0-19.4,13-31.8,32.7-31.8C458.7,122.2,471.3,136.8,469.9,159.4z M437.6,139c-4.4,0-7.1,3.6-8.1,8.7
		h15.2C445.1,142.7,441.9,139,437.6,139z"/>
</g>
<g>
	<linearGradient id="SVGID_1_" gradientUnits="userSpaceOnUse" x1="483.9687" y1="142.1681" x2="565.5038" y2="142.1681">
		<stop  offset="0" style="stop-color:#7FE8D8"/>
		<stop  offset="1" style="stop-color:#4FD1C5"/>
	</linearGradient>
	<path class="st2" d="M509.6,102.9l14.7,22.3l14.8-22.3h24.2l-25.9,37.5l28.1,41H541l-16.7-24.3l-16.4,24.3h-24l27.9-40l-26.1-38.5
		H509.6z"/>
	
		<linearGradient id="SVGID_00000143582536789491843590000004195485339270287031_" gradientUnits="userSpaceOnUse" x1="569.871" y1="142.1681" x2="635.951" y2="142.1681">
		<stop  offset="0" style="stop-color:#7FE8D8"/>
		<stop  offset="1" style="stop-color:#4FD1C5"/>
	</linearGradient>
	<path style="fill:url(#SVGID_00000143582536789491843590000004195485339270287031_);" d="M636,130.5c0,18.5-11.5,29.2-31.6,29.2
		h-14v21.7h-20.5v-78.5h34.5C624.4,102.9,636,113,636,130.5z M616.5,131.1c0-7.7-4.8-11.9-13.1-11.9h-13v24.1h13
		C611.6,143.3,616.5,139.1,616.5,131.1z"/>
</g>
<linearGradient id="SVGID_00000147905184854642827270000016484249903581434042_" gradientUnits="userSpaceOnUse" x1="43.6568" y1="139.0205" x2="238.9634" y2="139.0205">
	<stop  offset="0" style="stop-color:#7FE8D8"/>
	<stop  offset="1" style="stop-color:#4FD1C5"/>
</linearGradient>
<path style="fill:url(#SVGID_00000147905184854642827270000016484249903581434042_);" d="M141.4,236.9c-51.5,0-94.1-40-97.5-91.5
	C40.5,95.3,78,49.1,127.7,42.1c2.3-0.3,4.6-0.7,6.9-0.9c8.7-0.7,13.3,2.5,14,9.7c0.7,6.8-4,10.9-12.1,12.4c-8.9,1.6-18,3.3-26.1,6.9
	c-30.2,13.1-48.7,45.8-44.7,77.4c4.3,34.4,29.2,60.7,63.1,66.5c41,7.1,80.4-20.8,87.2-62.5c1.6-9.7,0.1-19.8-0.3-29.8
	c-0.2-5.8,1.9-10,6.7-11.7c4.3-1.6,10-0.2,12.4,3.8c1.6,2.7,2.7,6,3.1,9.1c2.8,22.3-0.2,43.5-11.2,63.5
	C209.5,217.5,176.8,236.9,141.4,236.9z"/>
<linearGradient id="SVGID_00000023283057659633563320000006626000447845015988_" gradientUnits="userSpaceOnUse" x1="97.8109" y1="143.1522" x2="184.2822" y2="143.1522">
	<stop  offset="0" style="stop-color:#7FE8D8"/>
	<stop  offset="1" style="stop-color:#4FD1C5"/>
</linearGradient>
<path style="fill:url(#SVGID_00000023283057659633563320000006626000447845015988_);" d="M128,153.8c8.3-8.3,15.7-15.6,23.1-23
	c5.6-5.6,11-11.3,16.7-16.8c5-4.8,10.2-4.9,14-0.9c3.7,3.9,3.2,9.4-1.5,14.2c-14.7,14.9-29.4,29.7-44.3,44.4
	c-5.6,5.6-10.6,5.7-16.4,0.2c-6.4-6.1-12.7-12.3-18.8-18.7c-4-4.2-4-10.1-0.4-13.8c3.7-3.7,9.3-3.6,13.7,0.6
	C118.7,144.3,123,148.8,128,153.8z"/>
<linearGradient id="SVGID_00000169538525775703265520000000633353457478403760_" gradientUnits="userSpaceOnUse" x1="165.5458" y1="58.5781" x2="188.5592" y2="58.5781">
	<stop  offset="0" style="stop-color:#7FE8D8"/>
	<stop  offset="1" style="stop-color:#4FD1C5"/>
</linearGradient>
<path style="fill:url(#SVGID_00000169538525775703265520000000633353457478403760_);" d="M176.6,70.3c-6.5,0-11-4.8-11-11.6
	c0-6.8,5.2-12,11.7-11.9c6.2,0.2,11.2,5.4,11.3,11.8C188.7,65.1,183.3,70.4,176.6,70.3z"/>
<linearGradient id="SVGID_00000091712272714019632030000008104194805299637376_" gradientUnits="userSpaceOnUse" x1="197.4234" y1="82.5678" x2="220.4855" y2="82.5678">
	<stop  offset="0" style="stop-color:#7FE8D8"/>
	<stop  offset="1" style="stop-color:#4FD1C5"/>
</linearGradient>
<path style="fill:url(#SVGID_00000091712272714019632030000008104194805299637376_);" d="M220.5,82.8c-0.2,6.6-5.5,11.7-12.1,11.5
	c-6.5-0.2-11.2-5.3-10.9-11.8c0.2-6.4,6-12,12.2-11.8C215.7,71,220.6,76.5,220.5,82.8z"/>
</svg>
