<?xml version="1.0" encoding="utf-8"?>
<!-- Generator: Adobe Illustrator 28.1.0, SVG Export Plug-In . SVG Version: 6.00 Build 0)  -->
<svg version="1.1" id="Capa_1" xmlns="http://www.w3.org/2000/svg" xmlns:xlink="http://www.w3.org/1999/xlink" x="0px" y="0px"
	 viewBox="0 0 430 180" style="enable-background:new 0 0 430 180;" xml:space="preserve">
<style type="text/css">
	.st0{enable-background:new    ;}
	.st1{fill:#10211f;}
	.st2{fill:url(#SVGID_1_);}
	.st3{fill:url(#SVGID_00000151517331738888586200000012662111780677421706_);}
</style>
<g class="st0">
	<path class="st1" d="M63.9,55.9v56.9h32.7v21.6H37.9V55.9H63.9z"/>
	<path class="st1" d="M125.2,73.1v61.3H100V73.1H125.2z M122.8,56c0,5.9-4.1,10.2-10.2,10.2s-10.2-4.3-10.2-10.2
		c0-6,4.1-10.3,10.2-10.3S122.8,50,122.8,56z"/>
	<path class="st1" d="M163.1,74.8v1.7H175v15.9h-11.9v42H138v-42h-8.4V76.5h8.4V71c0-12.8,10-20.9,25.4-20.8c6.9,0,14.9,1.7,20,4.4
		l-8.4,17.2c-1.9-1.3-4.4-2.1-6.2-2.1C165.4,69.6,163.1,71.6,163.1,74.8z"/>
	<path class="st1" d="M237.1,109.4h-39.9c1.7,4.8,5.3,7.3,10.2,7.3c4.3,0,8.6-1.9,12.4-5.5l13.1,12.9c-6.5,7.2-15.9,11.2-27.8,11.2
		c-20.9,0-33.4-12.3-33.4-31.2c0-19.4,13-31.8,32.7-31.8C225.9,72.2,238.4,86.8,237.1,109.4z M204.7,89c-4.4,0-7.1,3.6-8.1,8.7h15.2
		C212.2,92.7,209.1,89,204.7,89z"/>
</g>
<g>
	<linearGradient id="SVGID_1_" gradientUnits="userSpaceOnUse" x1="251.0986" y1="92.1916" x2="332.6337" y2="92.1916">
		<stop  offset="0" style="stop-color:#7FE8D8"/>
		<stop  offset="1" style="stop-color:#4FD1C5"/>
	</linearGradient>
	<path class="st2" d="M276.7,52.9l14.7,22.3l14.8-22.3h24.2l-25.9,37.5l28.1,41h-24.5l-16.7-24.3l-16.4,24.3h-24l27.9-40l-26.1-38.5
		H276.7z"/>
	
		<linearGradient id="SVGID_00000035495897133159060210000013745285199890312838_" gradientUnits="userSpaceOnUse" x1="337.0009" y1="92.1916" x2="403.081" y2="92.1916">
		<stop  offset="0" style="stop-color:#7FE8D8"/>
		<stop  offset="1" style="stop-color:#4FD1C5"/>
	</linearGradient>
	<path style="fill:url(#SVGID_00000035495897133159060210000013745285199890312838_);" d="M403.1,80.5c0,18.5-11.5,29.2-31.6,29.2
		h-14v21.7H337V52.9h34.5C391.5,52.9,403.1,63,403.1,80.5z M383.6,81.2c0-7.7-4.8-11.9-13.1-11.9h-13v24.1h13
		C378.8,93.4,383.6,89.1,383.6,81.2z"/>
</g>
</svg>

