<?xml version="1.0" encoding="utf-8"?>
<!-- Generator: Adobe Illustrator 28.1.0, SVG Export Plug-In . SVG Version: 6.00 Build 0)  -->
<svg version="1.1" id="Capa_1" xmlns="http://www.w3.org/2000/svg" xmlns:xlink="http://www.w3.org/1999/xlink" x="0px" y="0px"
	 viewBox="0 0 512 512" style="enable-background:new 0 0 512 512;" xml:space="preserve">
<style type="text/css">
	.st0{fill:url(#SVGID_1_);}
	.st1{fill:url(#SVGID_00000132809188666077746720000010805688286964214965_);}
	.st2{fill:url(#SVGID_00000041263177959042230330000004268341797844874413_);}
	.st3{fill:url(#SVGID_00000063633532942995036940000010720925388661625022_);}
</style>
<linearGradient id="SVGID_1_" gradientUnits="userSpaceOnUse" x1="60.8191" y1="255.79" x2="451.4722" y2="255.79">
	<stop  offset="0" style="stop-color:#7FE8D8"/>
	<stop  offset="1" style="stop-color:#4FD1C5"/>
</linearGradient>
<path class="st0" d="M256.3,451.6c-103-0.1-188.2-80-195-183.1C54.6,168.3,129.5,76,229,62c4.6-0.7,9.2-1.4,13.8-1.8
	c17.4-1.4,26.6,5.1,28.1,19.4c1.3,13.5-8.1,21.7-24.2,24.7c-17.7,3.3-35.9,6.7-52.3,13.8C134.1,144.3,97,209.6,105,272.9
	c8.6,68.9,58.4,121.4,126.2,133.1c82,14.2,160.9-41.6,174.4-125c3.1-19.3,0.1-39.7-0.6-59.6c-0.4-11.6,3.8-19.9,13.3-23.5
	c8.7-3.3,19.9-0.5,24.8,7.6c3.3,5.4,5.5,11.9,6.3,18.2c5.7,44.6-0.3,87.1-22.4,126.9C392.6,412.7,327.2,451.6,256.3,451.6z"/>
<linearGradient id="SVGID_00000171699323284581822320000007614349118657395073_" gradientUnits="userSpaceOnUse" x1="169.1384" y1="264.0544" x2="342.0986" y2="264.0544">
	<stop  offset="0" style="stop-color:#7FE8D8"/>
	<stop  offset="1" style="stop-color:#4FD1C5"/>
</linearGradient>
<path style="fill:url(#SVGID_00000171699323284581822320000007614349118657395073_);" d="M229.6,285.4c16.6-16.6,31.4-31.2,46.2-46
	c11.2-11.2,22-22.7,33.4-33.6c9.9-9.5,20.5-9.9,28.1-1.7c7.3,7.9,6.4,18.8-3.1,28.3c-29.4,29.7-58.9,59.4-88.5,88.9
	c-11.3,11.2-21.3,11.4-32.8,0.4c-12.8-12.1-25.3-24.6-37.5-37.4c-8.1-8.4-8-20.3-0.8-27.5c7.3-7.4,18.6-7.2,27.4,1.1
	C211,266.4,219.6,275.4,229.6,285.4z"/>
<linearGradient id="SVGID_00000044876403428717854150000002648790072662632623_" gradientUnits="userSpaceOnUse" x1="304.6219" y1="94.8888" x2="350.6535" y2="94.8888">
	<stop  offset="0" style="stop-color:#7FE8D8"/>
	<stop  offset="1" style="stop-color:#4FD1C5"/>
</linearGradient>
<path style="fill:url(#SVGID_00000044876403428717854150000002648790072662632623_);" d="M326.7,118.4c-13-0.1-22-9.6-22.1-23.3
	C304.5,81.5,315,71,328.1,71.4c12.4,0.3,22.4,10.8,22.6,23.6C350.9,108,340.2,118.4,326.7,118.4z"/>
<linearGradient id="SVGID_00000110462028073565452310000010413493781217403291_" gradientUnits="userSpaceOnUse" x1="368.3837" y1="142.873" x2="414.5126" y2="142.873">
	<stop  offset="0" style="stop-color:#7FE8D8"/>
	<stop  offset="1" style="stop-color:#4FD1C5"/>
</linearGradient>
<path style="fill:url(#SVGID_00000110462028073565452310000010413493781217403291_);" d="M414.5,143.4
	c-0.3,13.3-11.1,23.5-24.3,23.1c-12.9-0.4-22.3-10.6-21.8-23.6c0.5-12.8,12-24,24.3-23.5C404.9,119.7,414.8,130.7,414.5,143.4z"/>
</svg>
