<?xml version="1.0" encoding="UTF-8"?><svg id="Capa_1" xmlns="http://www.w3.org/2000/svg" viewBox="0 0 512 512"><path d="M278.28,148.1c7.05,1.16,13.76,2.26,21.01,3.45-1.69,10.42-3.3,20.31-4.96,30.57,18.94,4.31,33.12,14.45,37.59,33.8,4.36,18.87-1.76,34.84-17.99,46.94,18.37,17.09,21.54,37.2,10.41,58.8-11.35,22.04-30.53,28.7-54.56,23.46-1.64,9.6-3.18,18.65-4.79,28.07-7.08-1.17-13.67-2.25-20.62-3.39,1.49-9.6,2.89-18.68,4.38-28.3-6.43-1.13-12.47-2.2-19.11-3.37-1.59,9.5-3.13,18.68-4.75,28.37-7.04-1.19-13.75-2.33-20.94-3.54,1.57-9.64,3.07-18.82,4.63-28.42-10.35-1.8-20.24-3.53-30.62-5.34.64-7.46,2.14-14.66,3.47-22.32,1.44.07,2.64.01,3.8.2,3.82.61,7.62,1.37,11.44,1.96,1.72.26,3.48.26,5.56.4.81-4.85,1.57-9.31,2.29-13.77,5.18-32.18,10.35-64.36,15.52-96.54.73-4.52.55-4.8-4.08-5.65-5.96-1.1-11.93-2.12-18.36-3.25.5-7.73,1.94-15.03,3.58-22.69,10.6,1.68,20.75,3.29,31.31,4.96,1.75-10.72,3.4-20.86,5.12-31.4,7.14,1.15,13.73,2.22,20.84,3.36-1.65,10.56-3.23,20.71-4.87,31.23,6.5,1.71,12.86,2.42,19.63,3.31,1.7-10.35,3.35-20.37,5.08-30.9ZM232.28,313.91c1.1.41,1.83.82,2.61.95,13.08,2.19,26.16,4.34,39.24,6.51,4.35.72,8.6.09,12.63-1.41,16.7-6.21,21.2-27.63,8.87-39.32-4.72-4.48-10.43-6.6-16.59-7.9-12.16-2.56-24.33-5.11-36.49-7.65-.64-.13-1.31-.17-2.56-.34-2.58,16.49-5.13,32.76-7.7,49.15ZM243.07,243.75c1.71.41,2.75.75,3.81.9,9.7,1.38,19.39,2.87,29.12,4.01,3.79.45,7.8.7,11.51-.01,8.89-1.71,14.87-7.08,16.96-16.08,2.03-8.78-1.32-15.7-8.19-21.06-3.41-2.66-7.32-4.42-11.6-5.23-10.44-1.98-20.89-3.95-31.33-5.9-.92-.17-1.86-.21-3.45-.39-2.44,14.53-4.29,28.95-6.83,43.76Z" fill="#e5e5e5" stroke-width="0"/><path d="M111.65,150.63c5.05,4.46,9.62,8.44,14.12,12.5,1.01.91,1.81,2.08,2.61,3.2,7.19,9.97,14.27,20.02,21.59,29.89,2.2,2.96,2.43,5.38.53,8.61-4.35,7.37-8.23,15.01-12.52,22.43-1.71,2.97-3.88,5.7-6.01,8.4-1.54,1.95-2.11,4-2.1,6.49.08,14.36.02,28.73,0,43.09,0,.96-.08,1.92-.14,3.17-6.98,4.24-14.04,8.52-21.36,12.96.66,2.3,1.21,4.4,1.87,6.46,4.18,13.25,10.27,25.62,17.64,37.35.71,1.13,2.17,1.94,3.46,2.51,2.52,1.11,5.44,1.53,7.68,3.01,2.45,1.62,4.76,3.86,6.28,6.34.98,1.6.42,4.13.6,6.93-3.06-1.97-5.34-3.74-7.88-5-4.44-2.21-9.01-4.2-13.6-6.08-2.26-.93-3.94-2.17-5.24-4.33-6.78-11.29-12.29-23.17-16.59-35.6-.58-1.67-1.19-3.34-1.9-5.32-5.14.42-10.05.81-15.43,1.25-7.75-24.16-9.56-48.74-6.64-73.66,3.62-30.93,15.23-58.82,33.03-84.59ZM96.79,249.72c-.58,15.02.53,29.82,4.37,44.69,1.29-.64,2.28-1.06,3.2-1.6,4.9-2.85,9.7-5.87,14.7-8.52,2.41-1.28,3.31-2.79,3.28-5.51-.11-10.5.45-21.03-.11-31.5-.44-8.26,1.61-15.13,6.34-21.94,5.33-7.67,9.51-16.14,14.29-24.44-7.31-9.71-14.49-19.25-21.9-29.1-5.58,7.16-8.22,15.22-12.19,22.56-1.89-.52-3.32-.92-5.27-1.46-7.19,17.36-11.37,35.32-12.85,54.08,2.12.94,3.86,1.72,6.13,2.73Z" fill="#e5e5e5" stroke-width="0"/><path d="M185.26,121.78c-.46-.66-.86-1.07-1.06-1.56-.51-1.27-.93-2.58-1.59-4.44,19.49-10.51,40.33-16.12,62.23-18.51v-9.43c-3.47.35-6.58.59-9.66,1-20.5,2.72-39.74,9.26-58.02,18.87-2.82,1.48-4.23,3.26-4.1,6.4.14,3.48-1.31,5.9-4.48,7.66-3.21,1.78-6.09,4.16-9.28,6.4,1.81,2.9,3.4,5.45,5.2,8.33-3.78,4.98-7.58,10.01-11.7,15.44,3.94,5.39,7.9,10.8,11.98,16.39-1.4,1.73-2.67,3.29-4.26,5.26-5.95-7.2-11.63-14.06-17.62-21.3,3.82-5.27,7.51-10.36,11.42-15.74-4.47-5.8-8.92-11.56-13.31-17.24,7.83-12.79,49.04-34.8,76.47-41.13,33.94-7.83,67.1-5.37,100.28,7.05-2.41,7.38-4.65,14.27-7.03,21.56-9.4-3.96-18.7-6.85-28.33-8.58-9.53-1.72-19.11-2.72-29.08-2.18-.6,2.46-1.17,4.83-1.82,7.54-23.45,1.15-45.5,7.27-66.23,18.22Z" fill="#e5e5e5" stroke-width="0"/><path d="M429.31,256.51c-1.77.22-3.22.55-4.67.57-4.42.05-8.85.04-13.27-.07-1.62-.04-2.83.39-4.1,1.46-8.86,7.5-17.76,14.95-26.75,22.28-1.96,1.6-3.02,3.28-3.31,5.83-1.79,15.79-3.71,31.56-5.63,47.33-.22,1.84-.17,3.49.94,5.12,3.59,5.25,7.07,10.56,10.62,15.83.21.32.63.5,1.24.96,17.2-22.57,28.04-47.72,31.89-76.26,6.07,1.33,11.69,2.54,17.31,3.82,1.76.4,1.9,1.78,1.59,3.27-.85,4.05-1.55,8.15-2.6,12.15-7.23,27.65-19.21,52.92-37.87,74.77-4.21,4.93-8.82,9.52-13.3,14.23-1.02,1.07-2.23,1.94-3.68,3.17-3.19-5.64-6.16-10.87-9.21-16.26,3.28-3.76,6.33-7.27,9.55-10.96-1.53-2.6-2.86-5-4.31-7.32-3.07-4.93-6.14-9.85-9.31-14.71-1.12-1.72-1.52-3.4-1.25-5.46,1.83-13.97,3.58-27.95,5.32-41.93.5-3.97,1.05-7.95,1.3-11.94.2-3.1,1.31-5.39,3.81-7.37,8.01-6.35,15.91-12.85,23.75-19.41,1.64-1.37,3.09-3.1,4.24-4.92,1.74-2.74,3.68-4.16,7.15-3.32,2.48.6,5.13.48,8.34.73.07-13.56-3.14-26.08-5.95-38.98h12.15c4.14,15.23,6.03,30.96,6.03,47.38Z" fill="#e5e5e5" stroke-width="0"/><path d="M302.53,411.35c-.16-2.81-.28-4.99-.43-7.58,7.46-2.93,14.97-5.89,22.91-9.01.52,1.83,1.03,3.61,1.67,5.86-5.95,2.69-11.69,5.29-17.74,8.03.56,3.13,1.13,6.33,1.77,9.94,13.72-4.25,25.92-10.74,37.8-18.43-.1-.67-.11-1.36-.32-1.97-1.85-5.35-3.7-10.69-5.62-16.02-.53-1.49-.69-3.27-2.83-3.69-.55-.11-1.06-1.2-1.3-1.93-.69-2.08-1.22-4.21-1.91-6.65,3.82-2.8,7.56-5.54,11.62-8.52,1.92,3.04,3.75,5.92,5.75,9.09-1.28,1.58-2.5,3.23-3.87,4.74-1.27,1.41-1.51,2.78-.63,4.51,2.57,5.04,5.03,10.14,7.56,15.2,1.36,2.71,2.78,5.38,4.13,8.01-7,8.09-37.86,24.21-53.9,27.3-.43-1.79-.91-3.61-1.31-5.45-.4-1.87-.72-3.75-1.13-5.87-3.98.22-7.37,1.59-11.09,2.81.22,4.08.44,8.03.68,12.48-17.44,4.14-34.94,4.95-52.64,3.36-31.27-2.81-59.49-14.96-69.58-22.29,1.9-2.71,4.57-4.66,6.84-6.98,2.31-2.36,4.7-4.63,7.14-7.02,37.48,18.4,76.06,22.2,116.41,10.08Z" fill="#e5e5e5" stroke-width="0"/><path d="M410.33,169.81h-43.13c-1.01-1.88-2.04-3.79-3.22-5.99,3.35-1.29,6.5-.63,9.56-.77,3.15-.14,6.32-.03,9.53-.03-.95-5.02-13.64-20.22-25.25-30.25-10.06-8.68-20.86-16.34-33.16-22.66,1.92-6.15,3.77-12.1,5.84-18.74,17.89,8.66,33.18,19.8,46.85,33.18,13.29,13,24.46,27.58,32.99,45.26Z" fill="#e5e5e5" stroke-width="0"/><path d="M163.11,390.85c-5.89,1.91-11.23,3.65-16.78,5.45-12.53-10.66-23.16-22.89-32.69-36.51,1.28.28,2.56.55,3.84.83,5.66,1.24,11.33,2.43,16.97,3.76,1.27.3,2.69.81,3.6,1.68,7.97,7.64,15.84,15.38,23.73,23.1.29.28.51.64,1.33,1.68Z" fill="#e5e5e5" stroke-width="0"/><path d="M414.16,178.05c.91,2.32,1.69,4.34,2.64,6.77h-41.01c-.97-1.93-1.94-3.83-3.23-6.4,14.3-.65,27.87,0,41.61-.37Z" fill="#e5e5e5" stroke-width="0"/><path d="M383.33,198.94c-.92-1.85-1.83-3.68-2.74-5.5,2.9-1.42,26.95-1.9,39.11-.82.63,1.86,1.33,3.89,2.15,6.32h-38.52Z" fill="#e5e5e5" stroke-width="0"/><path d="M345.21,155.78h-10.04v-10.19h10.04v10.19Z" fill="#e5e5e5" stroke-width="0"/><path d="M328.4,145.66v10.14h-9.97v-10.14h9.97Z" fill="#e5e5e5" stroke-width="0"/><path d="M174.9,382.4c-1.67,1.95-3.17,3.7-4.94,5.76-2.5-2.08-4.89-4.08-7.71-6.43,2.15-1.93,4.01-3.6,6.1-5.47,2.39,2.24,4.37,4.09,6.55,6.14Z" fill="#e5e5e5" stroke-width="0"/><path d="M155.91,374.7c2.12-1.97,3.71-3.44,5.57-5.17,1.54,1.62,2.92,3.07,4.64,4.89-1.54,1.47-2.89,2.75-4.64,4.41-1.74-1.29-3.41-2.53-5.57-4.14Z" fill="#e5e5e5" stroke-width="0"/></svg>